<svg width="23" height="35" viewBox="0 0 23 35" fill="none" xmlns="http://www.w3.org/2000/svg">
<path d="M22.672 35H0.592L9.664 24.872C10.464 23.912 11.312 22.872 12.208 21.752C13.136 20.632 13.984 19.448 14.752 18.2C15.52 16.952 16.16 15.656 16.672 14.312C17.184 12.968 17.44 11.592 17.44 10.184C17.44 7.976 16.848 6.216 15.664 4.904C14.512 3.592 13.024 2.936 11.2 2.936C10.112 2.936 9.2 3.144 8.464 3.56C7.76 3.976 7.168 4.536 6.688 5.24C6.24 5.912 5.904 6.712 5.68 7.64C5.456 8.536 5.296 9.48 5.2 10.472H0.4C0.4 9.128 0.672 7.864 1.216 6.68C1.76 5.496 2.512 4.472 3.472 3.608C4.464 2.744 5.616 2.072 6.928 1.592C8.24 1.08 9.664 0.823999 11.2 0.823999C12.928 0.823999 14.48 1.08 15.856 1.592C17.232 2.072 18.384 2.744 19.312 3.608C20.24 4.472 20.944 5.48 21.424 6.632C21.936 7.752 22.192 8.936 22.192 10.184C22.192 11.752 22.032 13.096 21.712 14.216C21.424 15.336 20.944 16.424 20.272 17.48C19.632 18.504 18.784 19.592 17.728 20.744C16.704 21.896 15.456 23.272 13.984 24.872L7.744 31.544H22.672V35Z" fill="#57463A"/>
</svg>
