<svg width="23" height="36" viewBox="0 0 23 36" fill="none" xmlns="http://www.w3.org/2000/svg">
<path d="M9.568 16.088C10.24 16.088 11.008 16.024 11.872 15.896C12.768 15.736 13.6 15.432 14.368 14.984C15.168 14.504 15.824 13.832 16.336 12.968C16.88 12.104 17.152 10.968 17.152 9.56C17.152 8.696 17.024 7.88 16.768 7.112C16.544 6.312 16.176 5.608 15.664 5C15.184 4.36 14.56 3.864 13.792 3.512C13.024 3.128 12.112 2.936 11.056 2.936C10.384 2.936 9.744 3.016 9.136 3.176C8.528 3.336 7.984 3.64 7.504 4.088C7.024 4.504 6.624 5.096 6.304 5.864C5.984 6.632 5.76 7.608 5.632 8.792H1.36C1.392 7.928 1.568 7.032 1.888 6.104C2.24 5.144 2.8 4.28 3.568 3.512C4.336 2.712 5.344 2.072 6.592 1.592C7.84 1.08 9.408 0.823999 11.296 0.823999C13.024 0.823999 14.512 1.08 15.76 1.592C17.04 2.072 18.08 2.728 18.88 3.56C19.712 4.36 20.32 5.304 20.704 6.392C21.088 7.48 21.28 8.616 21.28 9.8C21.28 11.464 20.832 12.824 19.936 13.88C19.04 14.904 17.68 15.8 15.856 16.568L15.328 16.76V17.096L15.856 17.192C16.912 17.352 17.856 17.704 18.688 18.248C19.52 18.76 20.224 19.4 20.8 20.168C21.408 20.904 21.872 21.736 22.192 22.664C22.512 23.56 22.672 24.456 22.672 25.352C22.672 26.632 22.416 27.88 21.904 29.096C21.424 30.312 20.688 31.4 19.696 32.36C18.704 33.288 17.456 34.04 15.952 34.616C14.48 35.192 12.752 35.48 10.768 35.48C9.36 35.512 8.032 35.32 6.784 34.904C5.536 34.488 4.432 33.912 3.472 33.176C2.544 32.408 1.792 31.528 1.216 30.536C0.672 29.544 0.4 28.504 0.4 27.416H5.2C5.232 28.184 5.392 28.936 5.68 29.672C6 30.408 6.416 31.048 6.928 31.592C7.472 32.136 8.112 32.584 8.848 32.936C9.584 33.256 10.416 33.416 11.344 33.416C13.264 33.416 14.816 32.776 16 31.496C17.216 30.216 17.824 28.232 17.824 25.544C17.824 24.968 17.76 24.264 17.632 23.432C17.504 22.6 17.168 21.8 16.624 21.032C16.112 20.232 15.296 19.56 14.176 19.016C13.056 18.472 11.52 18.2 9.568 18.2V16.088Z" fill="#57463A"/>
</svg>
