<svg width="24" height="35" viewBox="0 0 24 35" fill="none" xmlns="http://www.w3.org/2000/svg">
<path d="M7.496 12.448C8.392 12.096 9.192 11.84 9.896 11.68C10.632 11.488 11.448 11.392 12.344 11.392C13.88 11.392 15.304 11.648 16.616 12.16C17.928 12.64 19.064 13.36 20.024 14.32C21.016 15.248 21.784 16.368 22.328 17.68C22.904 18.992 23.192 20.464 23.192 22.096C23.192 24.08 22.856 25.84 22.184 27.376C21.544 28.912 20.648 30.208 19.496 31.264C18.376 32.32 17.048 33.136 15.512 33.712C14.008 34.256 12.392 34.528 10.664 34.528C9.192 34.528 7.832 34.32 6.584 33.904C5.368 33.456 4.312 32.864 3.416 32.128C2.52 31.392 1.8 30.512 1.256 29.488C0.744 28.464 0.472 27.376 0.44 26.224H3.944C3.976 27.088 4.152 27.904 4.472 28.672C4.792 29.408 5.224 30.064 5.768 30.64C6.344 31.184 7.032 31.616 7.832 31.936C8.632 32.256 9.544 32.416 10.568 32.416C11.496 32.416 12.424 32.24 13.352 31.888C14.28 31.504 15.112 30.912 15.848 30.112C16.616 29.28 17.224 28.24 17.672 26.992C18.152 25.712 18.392 24.176 18.392 22.384C18.392 19.856 17.72 17.808 16.376 16.24C15.032 14.672 13.016 13.888 10.328 13.888C9.688 13.888 8.808 13.952 7.688 14.08C6.568 14.208 5.32 14.624 3.944 15.328L8.216 0.399998H22.76L21.8 3.04H10.28L7.496 12.448Z" fill="#57463A"/>
</svg>
