<svg width="24" height="36" viewBox="0 0 24 36" fill="none" xmlns="http://www.w3.org/2000/svg">
<path d="M21.52 6.488C21.392 5.496 21.072 4.648 20.56 3.944C20.048 3.208 19.408 2.616 18.64 2.168C17.872 1.72 17.008 1.384 16.048 1.16C15.088 0.935999 14.08 0.823999 13.024 0.823999C10.816 0.823999 8.944 1.32 7.408 2.312C5.872 3.272 4.608 4.568 3.616 6.2C2.656 7.8 1.952 9.64 1.504 11.72C1.088 13.8 0.88 15.928 0.88 18.104C0.88 20.152 1.024 22.216 1.312 24.296C1.6 26.344 2.144 28.2 2.944 29.864C3.776 31.528 4.928 32.888 6.4 33.944C7.904 35 9.84 35.528 12.208 35.528C13.84 35.528 15.328 35.224 16.672 34.616C18.016 34.008 19.168 33.176 20.128 32.12C21.088 31.064 21.84 29.832 22.384 28.424C22.928 27.016 23.2 25.512 23.2 23.912C23.2 21.992 22.896 20.344 22.288 18.968C21.68 17.592 20.896 16.456 19.936 15.56C18.976 14.664 17.888 14.008 16.672 13.592C15.488 13.144 14.304 12.92 13.12 12.92C11.136 12.92 9.536 13.32 8.32 14.12C7.136 14.92 6.272 15.864 5.728 16.952L5.152 18.056H4.96C4.96 15.816 5.056 13.768 5.248 11.912C5.472 10.056 5.872 8.472 6.448 7.16C7.024 5.816 7.824 4.776 8.848 4.04C9.872 3.304 11.184 2.936 12.784 2.936C14 2.936 15.04 3.256 15.904 3.896C16.768 4.504 17.296 5.368 17.488 6.488H21.52ZM5.44 24.248C5.44 22.584 5.648 21.176 6.064 20.024C6.48 18.84 7.008 17.896 7.648 17.192C8.32 16.456 9.056 15.928 9.856 15.608C10.656 15.256 11.456 15.08 12.256 15.08C12.96 15.08 13.696 15.224 14.464 15.512C15.232 15.8 15.936 16.296 16.576 17C17.216 17.704 17.728 18.648 18.112 19.832C18.528 21.016 18.736 22.488 18.736 24.248C18.736 26.168 18.512 27.736 18.064 28.952C17.616 30.136 17.056 31.064 16.384 31.736C15.712 32.408 14.992 32.856 14.224 33.08C13.488 33.304 12.816 33.416 12.208 33.416C11.44 33.416 10.64 33.256 9.808 32.936C9.008 32.584 8.288 32.04 7.648 31.304C7.008 30.536 6.48 29.576 6.064 28.424C5.648 27.272 5.44 25.88 5.44 24.248Z" fill="#57463A"/>
</svg>
