<svg width="52" height="52" viewBox="0 0 52 52" fill="none" xmlns="http://www.w3.org/2000/svg">
<circle cx="26" cy="26" r="25.5" stroke="#F6F6F6"/>
<g clip-path="url(#clip0_203_3)">
<path d="M36.3724 30.8797L33.1627 27.67C32.0164 26.5236 30.0676 26.9822 29.6091 28.4724C29.2652 29.5041 28.1189 30.0773 27.0872 29.848C24.7945 29.2748 21.6994 26.2944 21.1263 23.8871C20.7824 22.8553 21.4702 21.709 22.5019 21.3652C23.9921 20.9066 24.4506 18.9579 23.3043 17.8115L20.0946 14.6018C19.1775 13.7994 17.8019 13.7994 16.9995 14.6018L14.8215 16.7798C12.6434 19.0725 15.0507 25.148 20.4385 30.5358C25.8262 35.9235 31.9018 38.4455 34.1944 36.1528L36.3724 33.9748C37.1749 33.0577 37.1749 31.6821 36.3724 30.8797Z" fill="white"/>
</g>
<defs>
<clipPath id="clip0_203_3">
<rect width="23" height="23" fill="white" transform="translate(14 14)"/>
</clipPath>
</defs>
</svg>
