<?xml version="1.0" standalone="no"?>
<!DOCTYPE svg PUBLIC "-//W3C//DTD SVG 20010904//EN"
 "http://www.w3.org/TR/2001/REC-SVG-20010904/DTD/svg10.dtd">
<svg version="1.0" xmlns="http://www.w3.org/2000/svg"
 width="197.000000pt" height="197.000000pt" viewBox="0 0 197.000000 197.000000"
 preserveAspectRatio="xMidYMid meet">
<metadata>
Created by potrace 1.14, written by Peter Selinger 2001-2017
</metadata>
<g transform="translate(0.000000,197.000000) scale(0.100000,-0.100000)"
fill="#000000" stroke="none">
<path d="M1030 1494 c-150 -26 -251 -67 -312 -125 -33 -31 -39 -43 -36 -70 4
-47 45 -61 95 -34 34 19 44 44 16 37 -24 -5 -13 8 25 32 37 23 172 76 194 76
6 0 2 -10 -9 -22 -24 -27 -129 -177 -242 -346 -58 -85 -85 -136 -88 -163 l-6
-39 42 0 c37 0 44 4 59 31 33 60 124 199 131 199 3 0 23 -24 43 -53 21 -28 48
-64 60 -79 13 -14 40 -46 60 -71 20 -24 53 -52 73 -61 34 -17 37 -16 68 1 40
24 46 49 13 57 -23 6 -112 98 -184 192 l-32 41 68 23 c115 39 192 89 236 155
49 72 24 160 -57 195 -41 18 -168 33 -217 24z m183 -95 c64 -29 11 -107 -120
-176 -54 -29 -133 -57 -133 -47 0 2 29 45 65 94 60 83 80 130 55 130 -5 0 -10
5 -10 11 0 15 104 6 143 -12z"/>
</g>
</svg>
