<svg width="100" height="94" viewBox="0 0 100 94" fill="none" xmlns="http://www.w3.org/2000/svg">
<g clip-path="url(#clip0_228_23)">
<path d="M92.5305 7.17069C83.502 -1.31585 69.0606 -2.22154 58.9385 5.06465C58.2155 5.58496 58.0783 6.55781 58.6316 7.23722C59.1849 7.91664 60.2198 8.0462 60.9431 7.52548C69.7578 1.18072 82.3349 1.97028 90.1985 9.36248C98.0624 16.7543 98.9028 28.5767 92.153 36.8626C91.5995 37.5423 91.7367 38.5149 92.4599 39.0352C92.7589 39.2505 93.1115 39.3547 93.461 39.3547C93.9567 39.3547 94.4467 39.1453 94.7714 38.7469C102.522 29.2322 101.559 15.6572 92.5305 7.17069Z" fill="black"/>
<path d="M89.2742 18.0408C88.8045 18.0408 88.3628 18.2127 88.0322 18.5235C87.6994 18.8355 87.5158 19.2508 87.5156 19.6926C87.5154 20.1344 87.6983 20.55 88.0309 20.8628C88.3631 21.175 88.8047 21.3469 89.2742 21.3469C89.7438 21.3469 90.1856 21.175 90.5178 20.8628C90.8502 20.5502 91.0331 20.1348 91.0329 19.6928C91.0326 19.2508 90.8491 18.8357 90.5176 18.5249C90.1856 18.2127 89.744 18.0408 89.2742 18.0408Z" fill="black"/>
<path d="M89.29 23.838C88.3962 24.1872 87.9697 25.1555 88.3401 25.9965C88.6132 26.6166 89.2511 27.0175 89.9651 27.0175C90.1968 27.0175 90.423 26.9751 90.6353 26.8927C91.0708 26.7238 91.4098 26.4056 91.59 25.9967C91.7703 25.5878 91.7694 25.1373 91.5898 24.7323C91.3168 24.1122 90.6789 23.7113 89.9649 23.7113C89.7332 23.7113 89.507 23.7535 89.29 23.838Z" fill="black"/>
<path d="M91.7532 40.4195C90.9917 41.1344 88.3631 40.9377 84.2046 38.8877C79.7732 36.7029 74.6798 33.0062 69.863 28.4782C65.0459 23.9502 61.1128 19.1624 58.7888 14.9968C56.6075 11.0877 56.3987 8.61651 57.1592 7.90155C57.8031 7.29632 57.8031 6.315 57.1592 5.70997C56.5152 5.10473 55.4714 5.10473 54.8276 5.70997C53.9386 6.54581 53.2167 7.96044 53.5497 10.3328C50.4436 14.4746 48.8175 19.4515 48.9 24.5318L41.9719 32.2137C41.9535 32.2338 41.9346 32.2536 41.9172 32.2745L2.70821 75.7505C-1.14423 80.0223 -0.851207 86.7194 3.36131 90.6794C5.59892 92.7827 8.66263 93.851 11.7283 93.851C14.4298 93.851 17.1327 93.0205 19.2701 91.3369L74.0537 48.1807C74.1874 48.1828 74.321 48.1871 74.4545 48.1871C79.7224 48.1871 84.8659 46.6586 89.1652 43.8095C89.5857 43.8622 89.9933 43.8914 90.3833 43.8914C91.8847 43.8914 93.1484 43.4913 94.0849 42.611C94.729 42.0058 94.729 41.0247 94.0851 40.4195C93.4413 39.8142 92.3971 39.8142 91.7532 40.4195ZM17.1519 88.9612C13.8657 91.5501 8.72484 91.3377 5.693 88.4876C2.66425 85.6407 2.45365 80.8259 5.22324 77.7549L42.6213 36.2865C44.3399 40.2748 46.9121 43.9374 50.1642 46.9946C50.4862 47.2971 50.9083 47.4486 51.3301 47.4486C51.752 47.4486 52.174 47.2973 52.4961 46.9946C53.14 46.3894 53.14 45.4081 52.4961 44.803C49.1398 41.6481 46.583 37.7818 45.0642 33.5779L49.3761 28.7968C50.3493 33.4529 52.7744 37.759 56.3819 41.1499C59.9818 44.5338 64.5511 46.8111 69.4923 47.7298L64.3698 51.7652C61.9004 50.9724 59.5499 49.8925 57.3734 48.5442C56.613 48.0735 55.5906 48.2706 55.0894 48.9856C54.5884 49.7003 54.7985 50.6614 55.5589 51.1325C57.4228 52.287 59.403 53.2609 61.4683 54.051L17.1519 88.9612ZM58.7139 38.9581C51.7485 32.4107 50.3013 22.3059 54.8027 14.3317C55.0999 14.989 55.4516 15.6884 55.8689 16.4362C58.3437 20.8715 62.4854 25.9264 67.5315 30.6695C73.1454 35.9468 79.5863 40.5184 84.91 42.6358C76.4267 46.8655 65.6782 45.5048 58.7139 38.9581Z" fill="black"/>
</g>
<defs>
<clipPath id="clip0_228_23">
<rect width="100" height="94" fill="white"/>
</clipPath>
</defs>
</svg>
